<svg xmlns="http://www.w3.org/2000/svg" viewBox="0 0 272.839 82.52" width="272.839" height="82.52" role="img" aria-label="OnDemand">
  <title>OnDemand</title>
  <g fill="#000000">
    <path d="M246.967 79.302L246.967 49.885L256.272 49.885C259.499 49.885 262.225 50.455 264.451 51.595C266.676 52.708 268.359 54.363 269.499 56.561C270.668 58.731 271.252 61.401 271.252 64.572C271.252 67.743 270.668 70.428 269.499 72.625C268.359 74.823 266.676 76.492 264.451 77.632C262.225 78.745 259.499 79.302 256.272 79.302L246.967 79.302ZM249.554 77.007L256.064 77.007C260.264 77.007 263.393 75.977 265.452 73.919C267.51 71.833 268.54 68.717 268.54 64.572C268.54 60.4 267.51 57.284 265.452 55.226C263.393 53.167 260.264 52.138 256.064 52.138L249.554 52.138L249.554 77.007Z"/>
    <path d="M215.958 79.302L215.958 49.885L218.044 49.885L237.739 76.256L236.821 76.256L236.821 49.885L239.199 49.885L239.199 79.302L237.155 79.302L217.46 52.931L218.336 52.931L218.336 79.302L215.958 79.302Z"/>
    <path d="M182.805 79.302L195.615 49.885L197.952 49.885L210.97 79.302L208.258 79.302L204.586 70.831L205.796 71.457L187.687 71.457L189.106 70.831L185.517 79.302L182.805 79.302ZM196.742 53.014L189.607 69.746L188.647 69.246L204.837 69.246L204.127 69.746L196.825 53.014L196.742 53.014Z"/>
    <path d="M150.027 79.302L150.027 49.885L152.281 49.885L164.548 77.591L163.338 77.591L175.647 49.885L177.859 49.885L177.859 79.302L175.48 79.302L175.48 52.931L176.607 52.931L164.882 79.302L163.004 79.302L151.279 52.931L152.406 52.931L152.406 79.302L150.027 79.302Z"/>
    <path d="M125.62 79.302L125.62 49.885L143.896 49.885L143.896 52.096L128.123 52.096L128.123 63.279L142.978 63.279L142.978 65.49L128.123 65.49L128.123 77.09L143.896 77.09L143.896 79.302L125.62 79.302Z"/>
    <path d="M94.732 79.302L94.732 49.885L104.037 49.885C107.264 49.885 109.99 50.455 112.216 51.595C114.441 52.708 116.124 54.363 117.265 56.561C118.433 58.731 119.017 61.401 119.017 64.572C119.017 67.743 118.433 70.428 117.265 72.625C116.124 74.823 114.441 76.492 112.216 77.632C109.99 78.745 107.264 79.302 104.037 79.302L94.732 79.302ZM97.319 77.007L103.829 77.007C108.029 77.007 111.159 75.977 113.217 73.919C115.276 71.833 116.305 68.717 116.305 64.572C116.305 60.4 115.276 57.284 113.217 55.226C111.159 53.167 108.029 52.138 103.829 52.138L97.319 52.138L97.319 77.007Z"/>
    <path d="M127.807 33.063L127.807 3.646L129.893 3.646L149.588 30.017L148.67 30.017L148.67 3.646L151.048 3.646L151.048 33.063L149.003 33.063L129.309 6.692L130.185 6.692L130.185 33.063L127.807 33.063Z"/>
    <path d="M94.732 18.333C94.732 15.218 95.247 12.547 96.276 10.322C97.333 8.069 98.849 6.344 100.824 5.148C102.799 3.924 105.178 3.312 107.96 3.312C110.686 3.312 113.036 3.924 115.011 5.148C117.014 6.344 118.544 8.069 119.601 10.322C120.686 12.547 121.228 15.204 121.228 18.292C121.228 21.407 120.686 24.091 119.601 26.345C118.516 28.598 116.972 30.336 114.97 31.56C112.995 32.784 110.658 33.396 107.96 33.396C105.206 33.396 102.841 32.784 100.866 31.56C98.891 30.336 97.375 28.598 96.318 26.345C95.261 24.091 94.732 21.421 94.732 18.333ZM97.486 18.333C97.486 22.339 98.377 25.468 100.157 27.722C101.937 29.947 104.538 31.06 107.96 31.06C111.27 31.06 113.857 29.947 115.721 27.722C117.584 25.468 118.516 22.339 118.516 18.333C118.516 14.3 117.584 11.184 115.721 8.987C113.885 6.761 111.298 5.649 107.96 5.649C104.538 5.649 101.937 6.761 100.157 8.987C98.377 11.184 97.486 14.3 97.486 18.333Z"/>
    <path fill-rule="evenodd" d="M41.26 7.508C22.62 7.508 7.508 22.62 7.508 41.26C7.508 56.849 18.078 69.974 32.446 73.851L34.12 74.227L33.762 80.339L30.904 79.568C14.018 75.012 1.587 59.593 1.587 41.26C1.587 19.35 19.35 1.587 41.26 1.587C63.17 1.587 80.933 19.35 80.933 41.26C80.933 63.17 63.17 80.933 41.26 80.933L38.299 80.933L38.299 25.512L44.221 25.512L44.221 74.884C61.474 73.384 75.012 58.902 75.012 41.26C75.012 22.62 59.9 7.508 41.26 7.508Z"/>
  </g>
</svg>
